# xmcd
#
# Track frame offsets:
#	150
#	18945
#	32832
#	48872
#	62701
#	78663
#	95504
#	108014
#	128944
#	141387
#	160376
#	172795
#
# Disc length: 2523 seconds
#
# Revision: 0
# Processed by: cddbd v1.5.2PL0 Copyright (c) Steve Scherf et al.
# Submitted via: SynApp - FreeCDDB Version: 2.2
#
DISCID=9709d90c
DTITLE=Robby and The Splash - Makin´ waves
DYEAR=1995
DGENRE=Blues Rock
TTITLE0=Young kids in love
TTITLE1=Tell me
TTITLE2=I can´t get over you
TTITLE3=Push it
TTITLE4=The time is right
TTITLE5=10.000 people
TTITLE6=On my mind
TTITLE7=Heat of love
TTITLE8=Take me
TTITLE9=Second hand lady
TTITLE10=Mover
TTITLE11=Everything to me
EXTD=
EXTT0=
EXTT1=
EXTT2=
EXTT3=
EXTT4=
EXTT5=
EXTT6=
EXTT7=
EXTT8=
EXTT9=
EXTT10=
EXTT11=
PLAYORDER=
